<mxfile host="app.diagrams.net" modified="2023-10-24T08:42:40.964Z" agent="Mozilla/5.0 (X11; Linux x86_64; rv:109.0) Gecko/20100101 Firefox/118.0" version="22.0.6" etag="s2Wx_PI4lLYz-vd2n21X" type="github">
  <diagram name="Page-1" id="2hM2YDc4p4FnncLE8h75">
    <mxGraphModel>
      <root>
        <mxCell id="0" />
        <mxCell id="1" parent="0" />
      </root>
    </mxGraphModel>
  </diagram>
</mxfile>
